# xmcd
#
# Track frame offsets:
#	150
#	8509
#	24274
#	42098
#	64848
#	80940
#	101107
#	118236
#	136969
#	146040
#	165592
#	185733
#	210188
#	231726
#	244201
#	264221
#	279525
#	298673
#	317730
#	333782
#
# Disc length: 4693 seconds
#
# Revision: 1
# Processed by: cddbd v1.5.2PL0 Copyright (c) Steve Scherf et al.
# Submitted via: audiograbber 1.83.01
#
DISCID=27125314
DTITLE=Alicia Keys and Mary J. Blige - Best Songs of two Megastars
DYEAR=2003
DGENRE=R'nB
TTITLE0=Alicia Keys - Piano and I
TTITLE1=Alicia Keys - Fallin'
TTITLE2=Alicia Keys - How come you don't call me
TTITLE3=Alicia Keys - A woman's worth
TTITLE4=Alicia Keys - Girlfriend
TTITLE5=Alicia Keys - Troubles
TTITLE6=Alicia Keys - Jane Doe
TTITLE7=Alicia Keys - Mr. Man
TTITLE8=Alicia Keys - Never felt this way
TTITLE9=Alicia Keys - Goodbye
TTITLE10=Mary J. Blige - Family affair
TTITLE11=Mary J. Blige - No more drama
TTITLE12=Mary J. Blige - Dance for me
TTITLE13=Mary J. Blige - Love
TTITLE14=Mary J. Blige - Steel away
TTITLE15=Mary J. Blige - Crazy games
TTITLE16=Mary J. Blige - Keep it movin'
TTITLE17=Mary J. Blige - Destiny
TTITLE18=Mary J. Blige - Beautiful day
TTITLE19=Mary J. Blige - Never been
EXTD=
EXTT0=
EXTT1=
EXTT2=
EXTT3=
EXTT4=
EXTT5=
EXTT6=
EXTT7=
EXTT8=
EXTT9=
EXTT10=
EXTT11=
EXTT12=
EXTT13=
EXTT14=
EXTT15=
EXTT16=
EXTT17=
EXTT18=
EXTT19=
PLAYORDER=
